<?xml version="1.0" encoding="utf-8"?>
<!-- Generator: Adobe Illustrator 24.0.2, SVG Export Plug-In . SVG Version: 6.00 Build 0)  -->
<svg version="1.1" id="Capa_1" xmlns="http://www.w3.org/2000/svg" xmlns:xlink="http://www.w3.org/1999/xlink" x="0px" y="0px"
	 viewBox="0 0 1024 768" style="enable-background:new 0 0 1024 768;" xml:space="preserve">
<style type="text/css">
	.st0{fill:#ED0CCD;}
	.st1{fill:#6C0BD3;}
</style>
<path class="st0" d="M94.9,326.2c5.1-10.1,12-17.9,20.7-23.4c8.7-5.5,18.5-8.2,29.3-8.2c9.2,0,17.3,1.9,24.2,5.6
	c6.9,3.7,12.3,8.7,16,14.7v-18.5h40v130.6h-40v-18.5c-3.9,6.1-9.3,11-16.3,14.7c-6.9,3.7-15,5.6-24.2,5.6c-10.6,0-20.3-2.8-29-8.3
	c-8.7-5.5-15.6-13.4-20.7-23.6c-5.1-10.2-7.6-22-7.6-35.5C87.3,348.1,89.9,336.4,94.9,326.2z M176.8,338.2
	c-5.5-5.8-12.3-8.7-20.2-8.7c-8,0-14.7,2.8-20.2,8.5c-5.5,5.7-8.3,13.5-8.3,23.5c0,10,2.8,17.9,8.3,23.8c5.5,5.9,12.3,8.8,20.2,8.8
	c8,0,14.7-2.9,20.2-8.7c5.5-5.8,8.3-13.6,8.3-23.6C185.1,351.8,182.4,343.9,176.8,338.2z"/>
<path class="st1" d="M328,300.2c6.9,3.7,12.3,8.7,16,14.7v-18.5h40v130.3c0,12-2.4,22.9-7.1,32.6c-4.8,9.7-12,17.5-21.8,23.3
	c-9.8,5.8-21.9,8.7-36.4,8.7c-19.3,0-35-4.6-47-13.7c-12-9.1-18.9-21.5-20.6-37.1h39.5c1.2,5,4.2,8.9,8.9,11.8
	c4.7,2.9,10.5,4.3,17.3,4.3c8.3,0,14.9-2.4,19.8-7.1c4.9-4.8,7.4-12.4,7.4-22.8v-18.5c-3.9,6.1-9.3,11-16.1,14.9
	c-6.9,3.8-14.9,5.7-24.1,5.7c-10.8,0-20.5-2.8-29.3-8.3c-8.7-5.5-15.6-13.4-20.7-23.6c-5.1-10.2-7.6-22-7.6-35.5
	c0-13.4,2.5-25.2,7.6-35.3c5.1-10.1,12-17.9,20.7-23.4c8.7-5.5,18.5-8.2,29.3-8.2C313,294.6,321.1,296.5,328,300.2z M335.7,338.2
	c-5.5-5.8-12.3-8.7-20.2-8.7c-8,0-14.7,2.8-20.2,8.5c-5.5,5.7-8.3,13.5-8.3,23.5c0,10,2.8,17.9,8.3,23.8c5.5,5.9,12.3,8.8,20.2,8.8
	c8,0,14.7-2.9,20.2-8.7c5.5-5.8,8.3-13.6,8.3-23.6C344,351.8,341.3,343.9,335.7,338.2z"/>
<path class="st1" d="M470.6,301.3c7-4.1,14.8-6.2,23.4-6.2v42.4h-11c-10,0-17.5,2.1-22.5,6.4c-5,4.3-7.5,11.8-7.5,22.6v60.6h-40
	V296.5h40v21.8C457.8,311.1,463.6,305.4,470.6,301.3z"/>
<g>
	<path class="st0" d="M624.5,406.7c10.8-12,17.3-27.8,17.3-45.2c0-17.4-6.6-33.2-17.3-45.2V406.7z"/>
	<path class="st0" d="M574.5,338.1c-5.8,0-10.7,2.1-14.8,6.2c-4,4.2-6.1,9.9-6.1,17.2c0,7.3,2,13.1,6.1,17.4c4,4.3,9,6.4,14.8,6.4
		c5.8,0,10.7-2.1,14.8-6.3c4-4.2,6.1-10,6.1-17.3c0-7.3-2-13-6.1-17.3C585.2,340.2,580.3,338.1,574.5,338.1z"/>
	<path class="st0" d="M595.3,409.4v-13.5c-2.9,4.4-6.8,8-11.9,10.8c-5.1,2.7-11,4.1-17.7,4.1c-7.8,0-14.8-2-21.2-6.1
		c-6.4-4-11.4-9.8-15.1-17.3c-3.7-7.5-5.6-16.1-5.6-25.9c0-9.8,1.9-18.4,5.6-25.8c3.7-7.4,8.7-13.1,15.1-17.1c6.4-4,13.5-6,21.4-6
		c6.7,0,12.6,1.4,17.7,4.1c5.1,2.7,9,6.3,11.7,10.8V314h27c-12.3-12.4-29.2-20.1-48-20.1c-37.3,0-67.6,30.3-67.6,67.6
		c0,37.3,30.3,67.6,67.6,67.6c18.6,0,35.5-7.5,47.7-19.7H595.3z"/>
</g>
<path class="st1" d="M671.8,326.2c5.1-10.1,12-17.9,20.7-23.4c8.7-5.5,18.5-8.2,29.3-8.2c9.2,0,17.3,1.9,24.2,5.6
	c6.9,3.7,12.3,8.7,16,14.7v-18.5h40v130.6h-40v-18.5c-3.9,6.1-9.3,11-16.3,14.7c-6.9,3.7-15,5.6-24.2,5.6c-10.6,0-20.3-2.8-29-8.3
	c-8.7-5.5-15.6-13.4-20.7-23.6c-5.1-10.2-7.6-22-7.6-35.5C664.1,348.1,666.7,336.4,671.8,326.2z M753.7,338.2
	c-5.5-5.8-12.3-8.7-20.2-8.7c-8,0-14.7,2.8-20.2,8.5c-5.5,5.7-8.3,13.5-8.3,23.5c0,10,2.8,17.9,8.3,23.8c5.5,5.9,12.3,8.8,20.2,8.8
	c8,0,14.7-2.9,20.2-8.7c5.5-5.8,8.3-13.6,8.3-23.6C762,351.8,759.2,343.9,753.7,338.2z"/>
<path class="st1" d="M853.7,423.1c-8.9-3.9-15.9-9.2-21.1-16c-5.1-6.8-8-14.4-8.7-22.8h39.5c0.5,4.5,2.6,8.2,6.3,11
	c3.7,2.8,8.3,4.2,13.8,4.2c5,0,8.9-1,11.6-2.9c2.7-1.9,4.1-4.5,4.1-7.6c0-3.7-2-6.5-5.9-8.3c-3.9-1.8-10.2-3.8-19-6
	c-9.4-2.2-17.2-4.5-23.4-6.9c-6.2-2.4-11.6-6.2-16.1-11.5c-4.5-5.2-6.8-12.3-6.8-21.2c0-7.5,2.1-14.3,6.2-20.5
	c4.1-6.2,10.2-11,18.3-14.6c8-3.6,17.6-5.4,28.7-5.4c16.4,0,29.3,4.1,38.7,12.2c9.4,8.1,14.9,18.9,16.3,32.3h-37
	c-0.6-4.5-2.6-8.1-6-10.8c-3.4-2.7-7.8-4-13.2-4c-4.7,0-8.3,0.9-10.8,2.7c-2.5,1.8-3.7,4.3-3.7,7.4c0,3.7,2,6.6,6,8.4
	c4,1.9,10.2,3.7,18.6,5.6c9.7,2.5,17.6,5,23.6,7.4c6.1,2.4,11.4,6.3,16,11.7c4.6,5.4,7,12.6,7.1,21.6c0,7.6-2.1,14.5-6.4,20.5
	c-4.3,6-10.5,10.7-18.5,14.2c-8,3.4-17.4,5.1-28,5.1C872.7,428.9,862.6,427,853.7,423.1z"/>
<path class="st0" d="M552.3,309.3c0,0,15.7-71.3,44.9-60l-2.9,18.1C594.3,267.3,579.5,242.9,552.3,309.3z"/>
</svg>
