<?xml version="1.0" encoding="utf-8"?>
<!-- Generator: Adobe Illustrator 23.0.5, SVG Export Plug-In . SVG Version: 6.00 Build 0)  -->
<svg version="1.1" id="Capa_1" xmlns="http://www.w3.org/2000/svg" xmlns:xlink="http://www.w3.org/1999/xlink" x="0px" y="0px"
	 viewBox="0 0 600 250" style="enable-background:new 0 0 600 250;" xml:space="preserve">
<style type="text/css">
	.st0{fill:#010202;}
	.st1{fill:#FFFFFF;}
	.st2{fill:none;stroke:#FFFFFF;stroke-width:2;stroke-linecap:round;stroke-miterlimit:10;}
</style>
<g>
	<path class="st0" d="M158,249.33c-45.5,0-87.41-26.59-106.77-67.74c-27.51-58.49-2.61-128.4,55.51-156.39
		c-31.86,38.84-38.68,92.65-17.18,138.36c21.34,45.36,67.42,74.75,117.53,75C191.54,245.7,175.03,249.33,158,249.33z"/>
	<path class="st1" d="M103.15,28.14c-29.66,38.82-35.49,91.17-14.48,135.84c20.85,44.34,65.17,73.52,113.88,75.47
		c-14.21,5.89-29.17,8.88-44.55,8.88c-21.88,0-43.3-6.12-61.92-17.71c-19.12-11.89-34.31-28.99-43.94-49.46
		c-13.29-28.25-14.78-59.99-4.2-89.37C57.89,64.19,77.38,41.77,103.15,28.14 M110.42,22.42c-1.04,0.45-2.08,0.92-3.11,1.4
		C47.9,51.77,22.39,122.6,50.33,182.01c20.25,43.06,63.03,68.32,107.67,68.32c16.95,0,34.17-3.64,50.52-11.33
		c1.03-0.48,2.05-0.98,3.06-1.5c-1.28,0.04-2.56,0.06-3.84,0.06c-48.62,0-95.2-27.52-117.27-74.42
		C67.83,114.99,77.39,59.98,110.42,22.42L110.42,22.42z"/>
</g>
<g>
	<line class="st2" x1="170.13" y1="230.66" x2="152.37" y2="245.38"/>
</g>
<g>
	<line class="st2" x1="141.59" y1="217.66" x2="108.26" y2="234.34"/>
</g>
<g>
	<line class="st2" x1="121.86" y1="211.65" x2="88.53" y2="228.33"/>
</g>
<g>
	<path class="st0" d="M170.01,246.14c-45.5,0-87.41-26.59-106.77-67.74c-13.4-28.49-14.9-60.5-4.23-90.13
		c10.55-29.28,31.74-52.77,59.74-66.26c-31.86,38.84-38.68,92.65-17.18,138.35c21.34,45.36,67.42,74.75,117.53,75
		C203.54,242.51,187.03,246.14,170.01,246.14z"/>
	<path class="st1" d="M115.15,24.95c-29.66,38.82-35.49,91.17-14.48,135.84c20.85,44.34,65.17,73.52,113.88,75.47
		c-14.21,5.89-29.17,8.88-44.55,8.88c-21.88,0-43.3-6.12-61.92-17.71c-19.12-11.89-34.31-28.99-43.94-49.46
		c-13.29-28.25-14.78-59.99-4.2-89.37C69.9,61,89.39,38.58,115.15,24.95 M122.43,19.23c-1.04,0.45-2.08,0.92-3.11,1.4
		c-59.41,27.95-84.93,98.78-56.98,158.19c20.25,43.06,63.03,68.32,107.67,68.32c16.95,0,34.17-3.64,50.52-11.33
		c1.03-0.48,2.05-0.98,3.06-1.5c-1.28,0.04-2.56,0.06-3.84,0.06c-48.62,0-95.2-27.52-117.27-74.42
		C79.84,111.8,89.4,56.79,122.43,19.23L122.43,19.23z"/>
</g>
<g>
	<line class="st2" x1="179.69" y1="222.73" x2="161.94" y2="237.45"/>
</g>
<g>
	<line class="st2" x1="137.73" y1="219.59" x2="104.41" y2="236.26"/>
</g>
<g>
	<line class="st2" x1="132.97" y1="206.1" x2="99.64" y2="222.77"/>
</g>
<g>
	<path class="st0" d="M183.73,242.49c-45.5,0-87.41-26.59-106.77-67.74c-27.51-58.49-2.61-128.4,55.51-156.39
		c-31.86,38.84-38.68,92.65-17.18,138.36c21.34,45.37,67.42,74.75,117.53,75C217.26,238.87,200.75,242.49,183.73,242.49z"/>
	<path class="st1" d="M128.87,21.3c-29.66,38.82-35.49,91.17-14.48,135.84c20.85,44.34,65.17,73.52,113.88,75.47
		c-14.21,5.89-29.17,8.88-44.55,8.88c-21.88,0-43.3-6.12-61.92-17.71c-19.12-11.89-34.31-28.99-43.94-49.46
		c-13.29-28.25-14.78-59.99-4.2-89.37C83.62,57.35,103.11,34.93,128.87,21.3 M136.15,15.59c-1.04,0.45-2.08,0.92-3.11,1.4
		c-59.41,27.95-84.93,98.78-56.98,158.19c20.25,43.06,63.03,68.32,107.67,68.32c16.95,0,34.17-3.64,50.52-11.33
		c1.03-0.48,2.05-0.98,3.06-1.5c-1.28,0.04-2.56,0.06-3.84,0.06c-48.62,0-95.2-27.52-117.27-74.42
		C93.56,108.15,103.12,53.14,136.15,15.59L136.15,15.59z"/>
</g>
<g>
	<line class="st2" x1="190.62" y1="213.67" x2="172.86" y2="228.39"/>
</g>
<g>
	<line class="st2" x1="150.43" y1="213.23" x2="117.1" y2="229.91"/>
</g>
<g>
	<line class="st2" x1="145.66" y1="199.74" x2="112.34" y2="216.42"/>
</g>
<g>
	<path class="st0" d="M196.73,237.31c-47.39,0-88.69-25.19-107.76-65.75c-27.52-58.5,0.73-129.98,62.98-159.9
		c-34.71,40.18-43.34,94.84-21.84,140.55c21.13,44.92,66.83,72.83,119.26,72.83c0.98,0,1.96-0.01,2.94-0.03
		C234.57,233.18,215.89,237.31,196.73,237.31z"/>
	<path class="st1" d="M148.09,14.72c-32.36,40.09-39.91,93.24-18.89,137.92c21.05,44.75,66.26,72.74,118.3,73.39
		c-16.28,6.82-33.33,10.28-50.77,10.28c-22.56,0-44.39-5.92-63.12-17.11c-19.23-11.49-34.35-28.11-43.74-48.07
		c-13.28-28.23-13.99-60.31-2.02-90.34C99.13,52.51,120.4,29.23,148.09,14.72 M155.88,8.76c-1.11,0.48-2.22,0.99-3.32,1.5
		c-63.56,29.9-92.44,102.31-64.49,161.72c19.78,42.05,62.72,66.33,108.67,66.33c18.97,0,38.46-4.14,57.03-12.88
		c1.1-0.52,2.19-1.05,3.28-1.6c-2.57,0.14-5.12,0.21-7.68,0.21c-50.04,0-96.81-26.45-118.35-72.26
		C108.37,103.65,119.95,47.68,155.88,8.76L155.88,8.76z"/>
</g>
<g>
	<path class="st0" d="M182.01,242.95c-45.5,0-87.41-26.59-106.77-67.74c-13.4-28.49-14.9-60.5-4.23-90.13
		c10.55-29.28,31.74-52.77,59.74-66.26c-31.86,38.84-38.68,92.65-17.18,138.36c21.34,45.36,67.42,74.75,117.53,75
		C215.55,239.32,199.04,242.95,182.01,242.95z"/>
	<path class="st1" d="M127.16,21.76c-29.66,38.82-35.49,91.17-14.48,135.84c20.85,44.34,65.16,73.52,113.88,75.47
		c-14.21,5.89-29.17,8.88-44.55,8.88c-21.88,0-43.3-6.12-61.92-17.71c-19.12-11.89-34.31-28.99-43.94-49.46
		c-13.29-28.25-14.78-59.99-4.2-89.37C81.9,57.8,101.39,35.39,127.16,21.76 M134.43,16.04c-1.04,0.45-2.08,0.92-3.11,1.4
		C71.91,45.39,46.4,116.22,74.34,175.63c20.25,43.06,63.03,68.32,107.67,68.32c16.95,0,34.17-3.64,50.52-11.33
		c1.03-0.48,2.05-0.98,3.06-1.5c-1.28,0.04-2.56,0.06-3.84,0.06c-48.62,0-95.2-27.52-117.27-74.42
		C91.84,108.61,101.4,53.6,134.43,16.04L134.43,16.04z"/>
</g>
<g>
	<line class="st2" x1="189.26" y1="214.8" x2="171.5" y2="229.52"/>
</g>
<g>
	<line class="st2" x1="148.84" y1="214.03" x2="115.51" y2="230.7"/>
</g>
<g>
	<line class="st2" x1="144.08" y1="200.54" x2="110.75" y2="217.21"/>
</g>
<g>
	<path class="st0" d="M194.02,239.76c-45.5,0-87.41-26.59-106.77-67.74c-13.4-28.49-14.9-60.5-4.23-90.13
		c10.55-29.28,31.74-52.77,59.74-66.26c-31.86,38.84-38.68,92.65-17.18,138.36c21.34,45.36,67.42,74.75,117.53,75
		C227.55,236.13,211.04,239.76,194.02,239.76z"/>
	<path class="st1" d="M139.16,18.57c-29.66,38.82-35.49,91.17-14.48,135.84c20.85,44.34,65.17,73.52,113.88,75.47
		c-14.21,5.89-29.17,8.88-44.55,8.88c-21.88,0-43.3-6.12-61.92-17.71c-19.12-11.89-34.31-28.99-43.94-49.46
		c-13.29-28.25-14.78-59.99-4.2-89.37C93.91,54.61,113.4,32.2,139.16,18.57 M146.44,12.85c-1.04,0.45-2.08,0.92-3.11,1.4
		C83.92,42.2,58.4,113.03,86.35,172.44c20.25,43.06,63.03,68.32,107.67,68.32c16.95,0,34.17-3.64,50.52-11.33
		c1.03-0.48,2.05-0.98,3.06-1.5c-1.28,0.04-2.56,0.06-3.84,0.06c-48.62,0-95.2-27.52-117.27-74.42
		C103.85,105.42,113.41,50.41,146.44,12.85L146.44,12.85z"/>
</g>
<g>
	<line class="st2" x1="198.82" y1="206.87" x2="181.06" y2="221.6"/>
</g>
<g>
	<line class="st2" x1="159.95" y1="208.47" x2="126.62" y2="225.14"/>
</g>
<g>
	<line class="st2" x1="155.19" y1="194.98" x2="121.86" y2="211.65"/>
</g>
<g>
	<path class="st0" d="M207.74,236.11c-45.5,0-87.41-26.59-106.77-67.74c-27.51-58.49-2.61-128.4,55.51-156.39
		c-31.86,38.84-38.68,92.65-17.18,138.36c21.34,45.36,67.42,74.75,117.53,75C241.27,232.49,224.76,236.11,207.74,236.11z"/>
	<path class="st1" d="M152.88,14.92c-29.66,38.82-35.49,91.17-14.48,135.84c20.85,44.34,65.17,73.52,113.88,75.47
		c-14.21,5.89-29.17,8.88-44.55,8.88c-21.88,0-43.3-6.12-61.92-17.71c-19.12-11.89-34.31-28.99-43.94-49.46
		c-13.29-28.25-14.78-59.99-4.2-89.37C107.63,50.97,127.12,28.55,152.88,14.92 M160.16,9.21c-1.04,0.45-2.08,0.92-3.11,1.4
		c-59.41,27.95-84.93,98.78-56.98,158.19c20.25,43.06,63.03,68.32,107.67,68.32c16.95,0,34.17-3.64,50.52-11.33
		c1.03-0.48,2.05-0.98,3.06-1.5c-1.28,0.04-2.56,0.06-3.84,0.06c-48.62,0-95.2-27.52-117.27-74.42
		C117.57,101.77,127.13,46.76,160.16,9.21L160.16,9.21z"/>
</g>
<g>
	<path class="st0" d="M104.97,165.61c-27.95-59.41,0.93-131.83,64.49-161.72c1.1-0.52,2.21-1.02,3.32-1.5
		c-35.92,38.92-47.51,94.88-24.87,143.02c22.64,48.14,73.14,74.9,126.03,72.05c-1.08,0.55-2.18,1.08-3.28,1.6
		C207.11,248.95,132.92,225.02,104.97,165.61z"/>
</g>
<g>
	<path d="M159.87,105.89V68.8l22.43,22.5v4.34l-11.68-11.68v21.93H159.87z M223.23,56.27v49.62l-10.68-4.63V82.11l-19.44,19.51
		l-7.9-7.9V89.3l-22.43-22.42V56.12l30.33,30.33L223.23,56.27z"/>
	<path d="M235.4,85.46l-3.77,0.85c-0.76-2.75-1.01-5.69-0.75-8.83c0.26-3.13,1.03-5.98,2.31-8.54c0.38-0.76,0.81-1.5,1.28-2.21
		c3.04-4.7,7.24-7.93,12.6-9.68c6.26-2.09,12.34-1.64,18.22,1.35c2.8,1.42,5.22,3.32,7.26,5.69c2.04,2.37,3.58,5.06,4.63,8.05
		l-2.63,0.57c-0.71-1.95-1.71-3.77-2.99-5.48c-1.52-2.04-3.37-3.75-5.55-5.13l-1.21-0.78l-4.34,6.69
		c-3.27-1.66-6.63-1.92-10.07-0.78c-3.44,1.14-5.98,3.34-7.62,6.59c-1.64,3.25-1.89,6.59-0.75,10c0.81,2.52,2.25,4.6,4.34,6.26
		l-3.99,6.12c-1.38-1.04-2.59-2.25-3.63-3.63c-1.33-1.76-2.3-3.7-2.92-5.84L235.4,85.46z M276.62,75.27
		c0.71,2.75,0.91,5.67,0.61,8.76c-0.31,3.09-1.1,5.91-2.38,8.47c-1.42,2.85-3.34,5.3-5.73,7.37c-2.4,2.07-5.09,3.6-8.08,4.59
		c-6.31,2.04-12.41,1.57-18.3-1.42c-2.8-1.42-5.21-3.3-7.23-5.62c-2.02-2.32-3.55-4.98-4.59-7.97l2.49-0.5
		c0.76,1.95,1.78,3.75,3.06,5.41c1.52,2.04,3.35,3.75,5.48,5.13l1.28,0.86l4.34-6.84c3.27,1.61,6.62,1.85,10.04,0.71
		c2.99-0.95,5.32-2.73,6.98-5.34c0.24-0.38,0.47-0.78,0.71-1.21c1.61-3.23,1.85-6.57,0.71-10.04c-0.81-2.47-2.23-4.53-4.27-6.19
		l3.92-6.05c1.38,1.04,2.56,2.25,3.56,3.63c1.38,1.76,2.37,3.7,2.99,5.84l0.43,1.28L276.62,75.27z"/>
	<path d="M287.37,85.46l-3.77,0.85c-0.76-2.75-1.01-5.69-0.75-8.83c0.26-3.13,1.03-5.98,2.31-8.54c0.38-0.76,0.81-1.5,1.28-2.21
		c3.04-4.7,7.24-7.93,12.6-9.68c6.26-2.09,12.34-1.64,18.22,1.35c2.8,1.42,5.22,3.32,7.26,5.69c2.04,2.37,3.58,5.06,4.63,8.05
		l-2.63,0.57c-0.71-1.95-1.71-3.77-2.99-5.48c-1.52-2.04-3.37-3.75-5.55-5.13l-1.21-0.78l-4.34,6.69
		c-3.27-1.66-6.63-1.92-10.07-0.78c-3.44,1.14-5.98,3.34-7.62,6.59c-1.64,3.25-1.89,6.59-0.75,10c0.81,2.52,2.25,4.6,4.34,6.26
		l-3.99,6.12c-1.38-1.04-2.59-2.25-3.63-3.63c-1.33-1.76-2.3-3.7-2.92-5.84L287.37,85.46z M328.59,75.27
		c0.71,2.75,0.91,5.67,0.61,8.76c-0.31,3.09-1.1,5.91-2.38,8.47c-1.42,2.85-3.34,5.3-5.73,7.37c-2.4,2.07-5.09,3.6-8.08,4.59
		c-6.31,2.04-12.41,1.57-18.3-1.42c-2.8-1.42-5.21-3.3-7.23-5.62c-2.02-2.32-3.55-4.98-4.59-7.97l2.49-0.5
		c0.76,1.95,1.78,3.75,3.06,5.41c1.52,2.04,3.35,3.75,5.48,5.13l1.28,0.86l4.34-6.84c3.27,1.61,6.62,1.85,10.04,0.71
		c2.99-0.95,5.32-2.73,6.98-5.34c0.24-0.38,0.47-0.78,0.71-1.21c1.61-3.23,1.85-6.57,0.71-10.04c-0.81-2.47-2.23-4.53-4.27-6.19
		l3.92-6.05c1.38,1.04,2.56,2.25,3.56,3.63c1.38,1.76,2.37,3.7,2.99,5.84l0.43,1.28L328.59,75.27z"/>
	<path d="M336.21,105.89V68.8l24.99,21.79v4.56l-14.24-12.46v23.21H336.21z M368.96,60.82l10.75-4.63v49.69l-15.59-13.67v-4.56
		l-24.99-21.78v-9.75l29.83,26.13V60.82z"/>
</g>
<g>
	<path d="M268.74,135.32v18.44l23.49,0.07l-4.27,10.75h-15.45v14.02h-10.75v-43.28H268.74z M264.97,128.98h35.31v10.68h-24.84v11.18
		h-3.77v-18.51h-6.98v-3.27h0.28V128.98z"/>
	<path d="M342.71,168.06l2.92,6.41l-9.83,4.27l-1.57-3.42h-19.29l-1.57,3.42h-11.82l8.47-18.44h11.75l-3.56,7.76H342.71z
		 M327.54,151.41l-2.85,5.98h-11.75l14.59-31.68l18.08,39.37h-22.5l1.57-3.35h7.55L327.54,151.41z"/>
	<path d="M370.47,164.93v4.91h-19.51v-40.72l10.68,4.63v31.18H370.47z M373.39,167.85h12.67v10.75h-32.18v-5.84h19.51V167.85z"/>
	<path d="M410.41,164.93v4.91H390.9v-40.72l10.68,4.63v31.18H410.41z M413.33,167.85H426v10.75h-32.18v-5.84h19.51V167.85z"/>
</g>
</svg>
